<?xml version="1.0" encoding="utf-8"?>
<!-- Generator: Adobe Illustrator 22.0.0, SVG Export Plug-In . SVG Version: 6.00 Build 0)  -->
<svg version="1.1" id="Calque_1" xmlns="http://www.w3.org/2000/svg" xmlns:xlink="http://www.w3.org/1999/xlink" x="0px" y="0px"
	 viewBox="0 0 20 20" style="enable-background:new 0 0 20 20;" xml:space="preserve">
<style type="text/css">
	.st0{fill:#BFBFBF;}
</style>
<path class="st0" d="M17,1H3C1.9,1,1,1.9,1,3v14c0,1.1,0.9,2,2,2h14c1.1,0,2-0.9,2-2V3C19,1.9,18.1,1,17,1z M3,2.5h14
	c0.3,0,0.5,0.2,0.5,0.5v8.4l-3-2.9c-0.3-0.3-0.8-0.3-1,0L9.9,12L7,10c-0.3-0.2-0.6-0.2-0.8,0l-3.6,2.6V3C2.5,2.7,2.7,2.5,3,2.5z
	 M17,17.5H3c-0.3,0-0.5-0.2-0.5-0.5v-2.4l4.1-3l3,1.9c0.3,0.2,0.7,0.2,0.9-0.1L14,10l3.5,3.4V17C17.5,17.3,17.3,17.5,17,17.5z"/>
</svg>
