<?xml version="1.0" encoding="utf-8"?>
<!-- Generator: Adobe Illustrator 22.0.0, SVG Export Plug-In . SVG Version: 6.00 Build 0)  -->
<svg version="1.1" id="Calque_1" xmlns="http://www.w3.org/2000/svg" xmlns:xlink="http://www.w3.org/1999/xlink" x="0px" y="0px"
	 viewBox="0 0 20 20" style="enable-background:new 0 0 20 20;" xml:space="preserve">
<style type="text/css">
	.st0{fill:#BFBFBF;}
</style>
<path class="st0" d="M11.2,3.7c-3,0-5.5,2.5-5.5,5.5c0,1.1,0.3,2.1,0.9,3l-3.4,3l1,1.1l3.4-2.9c1,0.9,2.2,1.4,3.6,1.4
	c3,0,5.5-2.5,5.5-5.5C16.8,6.2,14.2,3.7,11.2,3.7z M11.2,13.2c-2.2,0-4-1.8-4-4s1.8-4,4-4s4,1.8,4,4S13.4,13.2,11.2,13.2z"/>
</svg>
