<?xml version="1.0" encoding="utf-8"?>
<!-- Generator: Adobe Illustrator 22.0.0, SVG Export Plug-In . SVG Version: 6.00 Build 0)  -->
<svg version="1.1" id="Calque_1" xmlns="http://www.w3.org/2000/svg" xmlns:xlink="http://www.w3.org/1999/xlink" x="0px" y="0px"
	 viewBox="0 0 20 20" style="enable-background:new 0 0 20 20;" xml:space="preserve">
<style type="text/css">
	.st0{fill:#BFBFBF;}
</style>
<path class="st0" d="M17,1H3C1.9,1,1,1.9,1,3v14c0,1.1,0.9,2,2,2h14c1.1,0,2-0.9,2-2V3C19,1.9,18.1,1,17,1z M17.5,17
	c0,0.3-0.2,0.5-0.5,0.5H3c-0.3,0-0.5-0.2-0.5-0.5V5h15V17z M7,8H5v2h2V8z M7,12H5v2h2V12z M11,8H9v2h2V8z M15,8h-2v2h2V8z M11,12H9
	v2h2V12z M15,12h-2v2h2V12z"/>
</svg>
